<svg width="1280" height="392" viewBox="0 0 1280 392" fill="none" xmlns="http://www.w3.org/2000/svg">
<path opacity="0.1" d="M0 114.049C0 114.049 168.102 -21.9394 247.547 3.07053C343.19 33.1797 333.155 129.253 422.138 173.759C486.634 206.017 577.17 116.705 645.788 140.395C772.793 184.243 803.019 400.509 887.044 332.935C934.827 294.507 1014.11 301.363 1085.71 358.22C1144.08 404.575 1280 389.741 1280 389.741H0V114.049Z" fill="#044389"/>
<g opacity="0.2">
<g clip-path="url(#clip0)">
<path d="M464.162 61.391C463.58 61.6305 462.559 61.8274 461.376 61.9857C458.161 62.4168 453.756 62.5698 453.756 62.5698C453.756 62.5698 431.107 64.6687 414.133 56.8626C414.133 56.8626 411.664 55.4163 413.954 53.4698C414.307 53.1789 414.682 52.9234 415.075 52.7061L415.103 52.6748C415.363 52.4058 415.645 52.1633 415.944 51.9504C416.823 51.315 418.308 50.562 420.116 50.9033L464.698 58.9601C464.698 58.9601 466.326 60.4975 464.162 61.391Z" fill="#044389"/>
<path d="M455.279 57.7393L464.612 50.3404L468.726 51.1354L464.698 58.9601C464.698 58.9601 455.386 59.0432 455.279 57.7393Z" fill="#044389"/>
<path d="M431.782 53.2443L450.373 47.4186L453.369 48.1185L444.971 52.3395L442.347 55.6205L431.782 53.2443Z" fill="#044389"/>
<path d="M461.376 61.9857C458.161 62.4168 453.756 62.5698 453.756 62.5698C453.756 62.5698 431.107 64.6686 414.133 56.8626C414.133 56.8626 411.664 55.4163 413.954 53.4698L413.962 53.5057C413.962 53.5057 417.625 56.2718 435.125 58.5809L461.376 61.9857Z" fill="#FFD416"/>
<path d="M458.388 61.826L466.7 65.618L468.788 65.3592L463.816 61.1841C463.816 61.1841 457.803 59.7504 458.388 61.826Z" fill="#044389"/>
<path d="M416.976 53.9109C416.579 53.9182 415.67 53.1751 415.105 52.6748C415.366 52.4058 415.648 52.1633 415.947 51.9504C416.402 52.3409 417.212 52.9729 417.663 52.9483C418.314 52.9183 417.573 53.8989 416.976 53.9109Z" fill="#C4C4C4"/>
<path d="M454.735 74.9335L449.398 75.2455L434.395 63.9415L431.61 61.8426L430.257 60.8228C432.795 58.4279 443.151 61.7309 443.151 61.7309C443.349 61.9178 443.412 62.2285 443.403 62.5717C443.386 63.2144 443.115 63.9688 443.011 64.2402C442.986 64.3067 442.971 64.342 442.971 64.342L454.735 74.9335Z" fill="#044389"/>
<path d="M437.16 69.0726L436.235 69.7272L436.795 68.5877C436.637 68.4461 436.44 68.3677 436.237 68.3648H436.222C436.158 68.3662 436.094 68.3609 436.03 68.3488L435.717 68.571L435.851 68.2983C435.629 68.2113 435.438 68.0483 435.303 67.8326L434.743 68.2318L435.097 67.512C434.769 67.0722 434.328 66.8028 433.841 66.8028C433.258 66.8028 432.739 67.19 432.404 67.794C432.305 67.9749 432.164 68.1231 431.997 68.2236C431.829 68.3241 431.641 68.3733 431.451 68.3661H431.421C430.777 68.3661 430.255 69.1811 430.255 70.1869C430.255 71.1928 430.777 72.0077 431.421 72.0077C431.562 72.0072 431.701 71.9682 431.826 71.894C432.045 71.7752 432.285 71.711 432.528 71.7057C432.772 71.7004 433.013 71.7542 433.236 71.8634C433.425 71.9575 433.629 72.0061 433.836 72.0061C434.043 72.0061 434.247 71.9575 434.435 71.8634C434.657 71.7562 434.896 71.7035 435.137 71.7086C435.378 71.7138 435.615 71.7768 435.833 71.8933C435.957 71.9657 436.095 72.0038 436.235 72.0044C436.878 72.0044 437.4 71.1895 437.4 70.1836C437.404 69.7968 437.322 69.4148 437.16 69.0726Z" fill="#444444"/>
<path opacity="0.5" d="M435.419 71.737C435.083 71.6659 434.735 71.7081 434.42 71.8581C434.232 71.9524 434.028 72.0011 433.821 72.0011C433.615 72.0011 433.41 71.9524 433.222 71.8581C432.999 71.7486 432.757 71.6946 432.514 71.6999C432.27 71.7052 432.03 71.7696 431.811 71.8887C431.686 71.9627 431.547 72.0017 431.405 72.0024C430.834 72.0024 430.358 71.3585 430.259 70.5096C430.374 70.4168 430.471 70.3 430.545 70.1657C430.88 69.5623 431.399 69.1751 431.982 69.1751C432.565 69.1751 433.079 69.5543 433.414 70.153C433.513 70.3335 433.653 70.482 433.82 70.5843C433.986 70.6865 434.173 70.7389 434.363 70.7365H434.378C434.833 70.7351 435.227 71.1423 435.419 71.737Z" fill="#444444"/>
<path d="M463.297 68.2078L462.371 68.8624L462.932 67.7228C462.773 67.5812 462.577 67.5028 462.374 67.4999H462.359C462.295 67.5013 462.23 67.496 462.167 67.484L461.854 67.7062L461.988 67.4334C461.766 67.3464 461.574 67.1835 461.44 66.9677L460.88 67.3669L461.234 66.6471C460.906 66.2074 460.464 65.9379 459.978 65.9379C459.395 65.9379 458.876 66.3251 458.541 66.9292C458.441 67.11 458.301 67.2583 458.134 67.3588C457.966 67.4593 457.778 67.5084 457.588 67.5013H457.557C456.914 67.5013 456.392 68.3162 456.392 69.3221C456.392 70.3279 456.914 71.1429 457.557 71.1429C457.699 71.1424 457.838 71.1033 457.963 71.0291C458.182 70.9103 458.421 70.8461 458.665 70.8408C458.908 70.8355 459.15 70.8893 459.373 70.9985C459.562 71.0926 459.766 71.1412 459.973 71.1412C460.179 71.1412 460.384 71.0926 460.572 70.9985C460.793 70.8914 461.033 70.8386 461.274 70.8438C461.515 70.8489 461.752 70.9119 461.969 71.0284C462.094 71.1008 462.231 71.1389 462.371 71.1396C463.015 71.1396 463.537 70.3246 463.537 69.3187C463.541 68.9319 463.459 68.5499 463.297 68.2078V68.2078Z" fill="#F2F2F2"/>
<path opacity="0.5" d="M461.556 70.8721C461.22 70.801 460.872 70.8432 460.558 70.9932C460.369 71.0875 460.165 71.1363 459.958 71.1363C459.752 71.1363 459.548 71.0875 459.359 70.9932C459.136 70.8837 458.894 70.8297 458.651 70.835C458.407 70.8403 458.168 70.9047 457.949 71.0238C457.823 71.0978 457.684 71.1368 457.543 71.1376C456.971 71.1376 456.495 70.4936 456.396 69.6447C456.511 69.5519 456.608 69.4351 456.682 69.3008C457.017 68.6974 457.537 68.3102 458.119 68.3102C458.702 68.3102 459.216 68.6894 459.551 69.2882C459.651 69.4691 459.791 69.618 459.958 69.7202C460.125 69.8225 460.313 69.8746 460.503 69.8716H460.518C460.97 69.8703 461.364 70.2774 461.556 70.8721Z" fill="black"/>
<path d="M463.297 46.3875L462.371 47.0421L462.932 45.9025C462.773 45.761 462.577 45.6826 462.374 45.6797H462.359C462.295 45.6811 462.23 45.6757 462.167 45.6637L461.854 45.8859L461.988 45.6132C461.766 45.5262 461.574 45.3632 461.44 45.1475L460.88 45.5466L461.234 44.8268C460.906 44.3871 460.464 44.1177 459.978 44.1177C459.395 44.1177 458.876 44.5049 458.541 45.1089C458.441 45.2898 458.301 45.438 458.134 45.5385C457.966 45.639 457.778 45.6882 457.588 45.681H457.557C456.914 45.681 456.392 46.496 456.392 47.5018C456.392 48.5077 456.914 49.3226 457.557 49.3226C457.699 49.3221 457.838 49.2831 457.963 49.2089C458.182 49.0901 458.421 49.0258 458.665 49.0205C458.908 49.0153 459.15 49.0691 459.373 49.1783C459.562 49.2729 459.766 49.322 459.972 49.3226C460.179 49.3232 460.383 49.2751 460.572 49.1816C460.793 49.0744 461.033 49.0217 461.274 49.0268C461.515 49.032 461.752 49.095 461.969 49.2115C462.094 49.2839 462.231 49.322 462.371 49.3226C463.015 49.3226 463.537 48.5077 463.537 47.5018C463.542 47.1138 463.459 46.7306 463.297 46.3875V46.3875Z" fill="#F2F2F2"/>
<path opacity="0.5" d="M461.556 49.0518C461.22 48.9807 460.872 49.0229 460.558 49.1729C460.369 49.2672 460.165 49.3159 459.958 49.3159C459.752 49.3159 459.548 49.2672 459.359 49.1729C459.136 49.0634 458.894 49.0094 458.651 49.0147C458.407 49.02 458.168 49.0844 457.949 49.2035C457.823 49.2775 457.684 49.3165 457.543 49.3173C456.971 49.3173 456.495 48.6733 456.396 47.8244C456.511 47.7316 456.608 47.6148 456.682 47.4805C457.017 46.8771 457.537 46.4899 458.119 46.4899C458.702 46.4899 459.216 46.8691 459.551 47.4679C459.651 47.6488 459.791 47.7977 459.958 47.8999C460.125 48.0022 460.313 48.0543 460.503 48.0513H460.518C460.97 48.0499 461.364 48.4571 461.556 49.0518Z" fill="#444444"/>
<path d="M425.073 44.0332L424.612 44.3598L424.892 43.7917C424.813 43.7207 424.715 43.6813 424.613 43.6799H424.606C424.574 43.6803 424.542 43.6776 424.51 43.6719L424.354 43.7824L424.421 43.6493C424.31 43.606 424.214 43.5247 424.148 43.4171L423.868 43.6167L424.047 43.2582C423.973 43.1508 423.878 43.0634 423.77 43.0021C423.661 42.9409 423.542 42.9075 423.421 42.9042C423.13 42.9042 422.871 43.0972 422.706 43.3985C422.657 43.489 422.586 43.5631 422.503 43.6132C422.419 43.6634 422.325 43.6878 422.23 43.6839H422.214C421.893 43.6839 421.633 44.091 421.633 44.5926C421.633 45.0942 421.893 45.5007 422.214 45.5007C422.285 45.5005 422.354 45.4811 422.417 45.4442C422.526 45.3847 422.646 45.3526 422.767 45.3499C422.889 45.3473 423.009 45.3742 423.121 45.4289C423.214 45.4754 423.316 45.4995 423.418 45.4995C423.521 45.4995 423.622 45.4754 423.716 45.4289C423.826 45.3754 423.946 45.349 424.066 45.3517C424.186 45.3543 424.305 45.3859 424.413 45.4442C424.475 45.4799 424.543 45.4989 424.613 45.4994C424.934 45.4994 425.194 45.0929 425.194 44.5913C425.196 44.3969 425.155 44.2049 425.073 44.0332Z" fill="#444444"/>
<path opacity="0.03" d="M424.205 45.3624C424.037 45.3265 423.863 45.3476 423.706 45.4229C423.613 45.4692 423.511 45.4932 423.409 45.4935C423.305 45.4934 423.203 45.4687 423.108 45.421C422.997 45.3665 422.876 45.3398 422.755 45.3425C422.633 45.3453 422.514 45.3775 422.404 45.4369C422.342 45.4738 422.273 45.4932 422.203 45.4935C421.917 45.4935 421.68 45.1721 421.63 44.749C421.687 44.7024 421.736 44.6442 421.773 44.5774C421.94 44.2761 422.199 44.0831 422.488 44.0831C422.776 44.0831 423.034 44.2741 423.202 44.5714C423.252 44.6618 423.322 44.7362 423.406 44.7872C423.489 44.8381 423.583 44.864 423.678 44.8621H423.686C423.911 44.8621 424.109 45.0657 424.205 45.3624Z" fill="black"/>
<path d="M466.153 76.564L465.692 76.8907L465.972 76.3226C465.893 76.2515 465.795 76.2122 465.693 76.2108H465.686C465.654 76.2112 465.622 76.2085 465.59 76.2028L465.434 76.3132L465.501 76.1802C465.39 76.1369 465.295 76.0556 465.228 75.948L464.948 76.1476L465.127 75.789C465.053 75.6817 464.958 75.5942 464.85 75.533C464.741 75.4718 464.622 75.4383 464.501 75.4351C464.21 75.4351 463.951 75.628 463.786 75.9294C463.737 76.0199 463.666 76.094 463.583 76.1441C463.499 76.1943 463.405 76.2186 463.31 76.2148H463.294C462.974 76.2148 462.713 76.6219 462.713 77.1235C462.713 77.6251 462.974 78.0316 463.294 78.0316C463.365 78.0313 463.435 78.0119 463.497 77.975C463.606 77.9156 463.726 77.8834 463.847 77.8808C463.969 77.8782 464.089 77.9051 464.201 77.9597C464.294 78.0063 464.396 78.0303 464.498 78.0303C464.601 78.0303 464.702 78.0063 464.796 77.9597C464.906 77.9062 465.026 77.8799 465.146 77.8825C465.266 77.8852 465.385 77.9167 465.493 77.975C465.555 78.0108 465.624 78.0297 465.693 78.0303C466.014 78.0303 466.274 77.6238 466.274 77.1222C466.277 76.9278 466.235 76.7358 466.153 76.564V76.564Z" fill="#F2F2F2"/>
<path opacity="0.03" d="M465.285 77.8932C465.117 77.8573 464.943 77.8784 464.787 77.9538C464.693 78 464.591 78.0241 464.489 78.0243C464.385 78.0243 464.283 77.9995 464.188 77.9518C464.077 77.8974 463.956 77.8706 463.835 77.8734C463.713 77.8761 463.594 77.9083 463.484 77.9677C463.422 78.0046 463.353 78.024 463.283 78.0243C462.997 78.0243 462.76 77.703 462.71 77.2799C462.767 77.2332 462.816 77.175 462.853 77.1082C463.02 76.8069 463.279 76.614 463.568 76.614C463.857 76.614 464.114 76.8049 464.282 77.1022C464.332 77.1927 464.402 77.267 464.486 77.318C464.569 77.3689 464.663 77.3948 464.759 77.393H464.766C464.991 77.393 465.189 77.5965 465.285 77.8932Z" fill="black"/>
<path d="M423.287 78.2937L422.826 78.6204L423.106 78.0522C423.027 77.9812 422.928 77.9419 422.827 77.9405H422.82C422.788 77.9408 422.756 77.9382 422.724 77.9325L422.568 78.0429L422.635 77.9099C422.524 77.8665 422.428 77.7853 422.361 77.6777L422.082 77.8773L422.261 77.5187C422.187 77.4114 422.092 77.3239 421.983 77.2627C421.875 77.2015 421.756 77.168 421.634 77.1648C421.344 77.1648 421.085 77.3577 420.92 77.6591C420.87 77.7495 420.8 77.8236 420.716 77.8738C420.633 77.9239 420.539 77.9483 420.444 77.9445H420.428C420.107 77.9445 419.847 78.3516 419.847 78.8532C419.847 79.3548 420.107 79.7613 420.428 79.7613C420.499 79.761 420.568 79.7416 420.631 79.7047C420.74 79.6453 420.86 79.6131 420.981 79.6105C421.103 79.6078 421.223 79.6348 421.334 79.6894C421.428 79.736 421.53 79.76 421.632 79.76C421.735 79.76 421.836 79.736 421.93 79.6894C422.04 79.6359 422.16 79.6096 422.28 79.6122C422.4 79.6149 422.519 79.6464 422.627 79.7047C422.689 79.7405 422.757 79.7594 422.827 79.7599C423.148 79.7599 423.408 79.3535 423.408 78.8519C423.41 78.6574 423.369 78.4655 423.287 78.2937V78.2937Z" fill="#F2F2F2"/>
<path opacity="0.03" d="M422.419 79.6229C422.251 79.587 422.077 79.6081 421.92 79.6834C421.826 79.7297 421.725 79.7537 421.623 79.754C421.519 79.7539 421.416 79.7292 421.322 79.6814C421.211 79.627 421.09 79.6003 420.969 79.603C420.847 79.6058 420.727 79.638 420.618 79.6974C420.556 79.7343 420.487 79.7537 420.416 79.754C420.131 79.754 419.894 79.4326 419.844 79.0095C419.901 78.9629 419.95 78.9047 419.987 78.8379C420.154 78.5366 420.413 78.3436 420.702 78.3436C420.99 78.3436 421.248 78.5346 421.416 78.8319C421.466 78.9223 421.536 78.9967 421.62 79.0477C421.703 79.0986 421.797 79.1245 421.892 79.1226H421.9C422.124 79.1226 422.323 79.3262 422.419 79.6229Z" fill="black"/>
<path d="M444.602 37.2735L443.677 37.9281L444.237 36.7885C444.079 36.647 443.882 36.5685 443.679 36.5657H443.664C443.6 36.5671 443.536 36.5617 443.472 36.5497L443.159 36.7719L443.293 36.4992C443.071 36.4121 442.88 36.2492 442.745 36.0335L442.185 36.4326L442.539 35.7128C442.211 35.2731 441.77 35.0037 441.283 35.0037C440.7 35.0037 440.181 35.3908 439.846 35.9949C439.747 36.1758 439.606 36.324 439.439 36.4245C439.271 36.525 439.083 36.5742 438.893 36.567H438.862C438.219 36.567 437.697 37.3819 437.697 38.3878C437.697 39.3937 438.219 40.2086 438.862 40.2086C439.004 40.2081 439.143 40.169 439.268 40.0948C439.487 39.9761 439.727 39.9118 439.97 39.9065C440.214 39.9012 440.455 39.9551 440.678 40.0642C440.867 40.1588 441.071 40.208 441.277 40.2086C441.484 40.2092 441.688 40.1611 441.877 40.0676C442.099 39.9604 442.338 39.9076 442.579 39.9128C442.82 39.918 443.057 39.981 443.275 40.0975C443.399 40.1699 443.537 40.208 443.677 40.2086C444.32 40.2086 444.842 39.3937 444.842 38.3878C444.847 37.9998 444.765 37.6166 444.602 37.2735V37.2735Z" fill="#F2F2F2"/>
<path opacity="0.5" d="M442.861 39.9379C442.525 39.8668 442.177 39.909 441.863 40.059C441.674 40.1533 441.47 40.2021 441.263 40.2021C441.057 40.2021 440.853 40.1533 440.664 40.059C440.441 39.9495 440.2 39.8955 439.956 39.9008C439.712 39.9061 439.473 39.9705 439.254 40.0896C439.129 40.1636 438.989 40.2026 438.848 40.2034C438.276 40.2034 437.8 39.5594 437.702 38.7105C437.816 38.6177 437.913 38.5009 437.987 38.3666C438.323 37.7632 438.842 37.376 439.425 37.376C440.008 37.376 440.521 37.7552 440.856 38.354C440.956 38.5349 441.096 38.6838 441.263 38.786C441.43 38.8883 441.618 38.9404 441.809 38.9374H441.823C442.275 38.9361 442.669 39.3432 442.861 39.9379Z" fill="#444444"/>
<path d="M476.156 48.6899L475.694 49.0165L475.974 48.4484C475.895 48.3774 475.797 48.3381 475.696 48.3367H475.689C475.656 48.337 475.624 48.3344 475.593 48.3287L475.437 48.4391L475.503 48.3061C475.393 48.2627 475.297 48.1815 475.23 48.0739L474.951 48.2735L475.129 47.9149C475.055 47.8076 474.96 47.7201 474.852 47.6589C474.744 47.5976 474.625 47.5642 474.503 47.561C474.213 47.561 473.954 47.7539 473.789 48.0553C473.739 48.1457 473.669 48.2198 473.585 48.27C473.501 48.3201 473.407 48.3445 473.312 48.3407H473.297C472.976 48.3407 472.716 48.7478 472.716 49.2494C472.716 49.751 472.976 50.1575 473.297 50.1575C473.367 50.1572 473.437 50.1378 473.499 50.1009C473.609 50.0415 473.728 50.0093 473.85 50.0067C473.971 50.004 474.092 50.031 474.203 50.0856C474.297 50.1322 474.398 50.1562 474.501 50.1562C474.603 50.1562 474.705 50.1322 474.798 50.0856C474.909 50.0321 475.028 50.0058 475.149 50.0084C475.269 50.0111 475.387 50.0426 475.496 50.1009C475.557 50.1367 475.626 50.1556 475.696 50.1561C476.017 50.1561 476.277 49.7497 476.277 49.2481C476.279 49.0536 476.237 48.8617 476.156 48.6899V48.6899Z" fill="#F2F2F2"/>
<path opacity="0.03" d="M475.287 50.0191C475.119 49.9832 474.946 50.0043 474.789 50.0797C474.695 50.126 474.594 50.15 474.491 50.1502C474.389 50.1497 474.287 50.125 474.194 50.0777C474.082 50.0233 473.962 49.9965 473.84 49.9993C473.719 50.002 473.599 50.0342 473.49 50.0937C473.428 50.1305 473.358 50.1499 473.288 50.1502C473.003 50.1502 472.765 49.8289 472.716 49.4058C472.773 49.3591 472.821 49.3009 472.859 49.2341C473.025 48.9328 473.284 48.7399 473.573 48.7399C473.862 48.7399 474.12 48.9308 474.288 49.2282C474.337 49.3181 474.407 49.3921 474.49 49.4431C474.573 49.494 474.666 49.5201 474.761 49.5189H474.769C474.993 49.5189 475.191 49.7224 475.287 50.0191Z" fill="black"/>
</g>
</g>
<defs>
<clipPath id="clip0">
<rect width="63.2954" height="44.7542" fill="white" transform="translate(412.982 35.0031)"/>
</clipPath>
</defs>
</svg>
